<?xml version="1.0" encoding="UTF-8" standalone="no"?>
<!DOCTYPE svg PUBLIC "-//W3C//DTD SVG 1.1//EN" "http://www.w3.org/Graphics/SVG/1.1/DTD/svg11.dtd">
<svg width="100%" height="100%" viewBox="0 0 1000 1000" version="1.1" xmlns="http://www.w3.org/2000/svg" xmlns:xlink="http://www.w3.org/1999/xlink" xml:space="preserve" style="fill-rule:evenodd;clip-rule:evenodd;stroke-linejoin:round;stroke-miterlimit:1.41421;">
    <rect id="Artboard1" x="0" y="0" width="1000" height="1000" style="fill:none;"/>
    <clipPath id="_clip1">
        <rect id="Artboard11" x="0" y="0" width="1000" height="1000"/>
    </clipPath>
    <g clip-path="url(#_clip1)">
        <g transform="matrix(1,0,0,1,11.4629,163.07)">
            <text x="138px" y="251px" style="font-family:'HelveticaNeue', 'Helvetica Neue';font-size:200px;fill:rgb(38,63,189);">Sidebar</text>
        </g>
        <g transform="matrix(1,0,0,1,124.386,190.92)">
            <text x="330px" y="380px" style="font-family:'HelveticaNeue', 'Helvetica Neue';font-size:166.667px;fill:rgb(38,63,189);">Links</text>
        </g>
        <g transform="matrix(1.00232,0,0,1.00914,46.6234,46.6036)">
            <path d="M793.09,595.012C793.09,574.584 776.393,558 755.826,558L147.248,558C126.682,558 109.984,574.584 109.984,595.012L109.984,669.035C109.984,689.462 126.682,706.047 147.248,706.047L755.826,706.047C776.393,706.047 793.09,689.462 793.09,669.035L793.09,595.012Z" style="fill:rgb(32,66,98);"/>
        </g>
        <g transform="matrix(1.00232,0,0,0.995175,46.6234,-471.72)">
            <path d="M793.09,595.012C793.09,574.584 776.624,558 756.342,558L146.732,558C126.451,558 109.984,574.584 109.984,595.012L109.984,669.035C109.984,689.462 126.451,706.047 146.732,706.047L756.342,706.047C776.624,706.047 793.09,689.462 793.09,669.035L793.09,595.012Z" style="fill:rgb(32,66,98);"/>
        </g>
        <g transform="matrix(0.54849,0,0,0.816183,407.061,340.624)">
            <path d="M793.09,595.012C793.09,574.584 768.411,558 738.014,558L165.06,558C134.663,558 109.984,574.584 109.984,595.012L109.984,669.035C109.984,689.462 134.663,706.047 165.06,706.047L738.014,706.047C768.411,706.047 793.09,689.462 793.09,669.035L793.09,595.012Z" style="fill:rgb(32,66,98);"/>
        </g>
    </g>
</svg>
